<?xml version="1.0" encoding="UTF-8"?>
<svg version="1.1" xmlns="http://www.w3.org/2000/svg" viewBox="100 400 950 300">
<path d="M0 0 C8.29266122 -0.11579655 16.58498534 -0.2046645 24.87825489 -0.25906086 C28.72910405 -0.28516727 32.57940058 -0.32058231 36.42993164 -0.37719727 C40.14524967 -0.43148295 43.86003586 -0.46141268 47.57571983 -0.47438622 C48.99398868 -0.48363259 50.41222806 -0.50168912 51.83027077 -0.52865028 C53.81470023 -0.56488313 55.7996637 -0.56704187 57.78442383 -0.56762695 C59.47986076 -0.58428154 59.47986076 -0.58428154 61.20954895 -0.60127258 C64 0 64 0 65.81852722 2.35501099 C67.09762082 5.21854588 68.17676108 8.06276764 69.15625 11.04296875 C69.53910156 12.19990234 69.92195312 13.35683594 70.31640625 14.54882812 C70.70699219 15.74958984 71.09757813 16.95035156 71.5 18.1875 C71.89058594 19.36892578 72.28117188 20.55035156 72.68359375 21.76757812 C74.63217498 27.68877193 76.50131095 33.6245373 78.27099609 39.60131836 C79.60624254 43.99475317 81.09356731 48.33734267 82.5625 52.6875 C85.8207571 62.39448724 88.99234232 72.12698875 92.125 81.875 C95.43523227 92.17032953 98.78106788 102.45140628 102.22851562 112.70166016 C103.78548583 117.34005177 105.32878285 121.98301539 106.875 126.625 C107.55594056 128.66798509 108.23693053 130.71095371 108.91796875 132.75390625 C110.31640625 136.94921875 111.71484375 141.14453125 113.11328125 145.33984375 C113.4580249 146.37399414 113.80276855 147.40814453 114.15795898 148.47363281 C114.83865601 150.5158853 115.5191606 152.55820193 116.19946289 154.60058594 C117.63110267 158.8980013 119.06399904 163.1949388 120.5078125 167.48828125 C120.84389526 168.48976196 120.84389526 168.48976196 121.18676758 169.51147461 C121.75486407 171.20335153 122.32460496 172.89467608 122.89453125 174.5859375 C123.7622949 177.26588602 124.5817448 179.94736541 125.37890625 182.6484375 C127.46070425 189.64048461 129.84975399 196.52938979 132.21484375 203.4296875 C132.55902344 204.44804688 132.90320313 205.46640625 133.2578125 206.515625 C133.5686377 207.42602539 133.87946289 208.33642578 134.19970703 209.27441406 C135 212 135 212 136 218 C122.14 218 108.28 218 94 218 C90.0625 205.3125 90.0625 205.3125 88.74853516 201.06982422 C86.85964134 194.97213081 84.96523082 188.87649211 83.04072571 182.78993225 C82.20409366 180.14293285 81.37154154 177.49465806 80.53927612 174.84628296 C79.94494848 172.96112596 79.34470315 171.07783792 78.74438477 169.19458008 C78.38401123 168.04626709 78.0236377 166.8979541 77.65234375 165.71484375 C77.33257568 164.70542725 77.01280762 163.69601074 76.68334961 162.65600586 C76 160 76 160 76 156 C47.62 156 19.24 156 -10 156 C-10.66 159.3 -11.32 162.6 -12 166 C-12.46523963 167.69507388 -12.96103279 169.38280317 -13.515625 171.05078125 C-13.79438477 171.90389893 -14.07314453 172.7570166 -14.36035156 173.63598633 C-14.65393555 174.51923584 -14.94751953 175.40248535 -15.25 176.3125 C-18.008722 184.77939783 -20.57232488 193.27923316 -22.95800781 201.85864258 C-23.18327148 202.66454834 -23.40853516 203.4704541 -23.640625 204.30078125 C-23.83172852 204.99341064 -24.02283203 205.68604004 -24.21972656 206.3996582 C-25.38858171 210.29498868 -26.71392761 214.14178283 -28 218 C-41.86 218 -55.72 218 -70 218 C-66.62585034 205.62811791 -66.62585034 205.62811791 -65.23828125 201.3359375 C-64.92826172 200.37236328 -64.61824219 199.40878906 -64.29882812 198.41601562 C-63.8105957 196.91071289 -63.8105957 196.91071289 -63.3125 195.375 C-62.60019625 193.16408317 -61.88795853 190.95314507 -61.17578125 188.7421875 C-60.6336499 187.06334473 -60.6336499 187.06334473 -60.08056641 185.35058594 C-58.37759831 180.07007663 -56.68929687 174.78489515 -55 169.5 C-54.33728647 167.42967249 -53.67452587 165.35936005 -53.01171875 163.2890625 C-51.63683708 158.99297747 -50.26481194 154.69599219 -48.89453125 150.3984375 C-43.00286517 131.93275902 -43.00286517 131.93275902 -40.25 123.75 C-38.46845261 118.44665198 -36.79006185 113.12116462 -35.16015625 107.76953125 C-31.30441443 95.24161591 -27.2787856 82.7691594 -23.10546875 70.34375 C-21.72555794 66.16988549 -20.43944443 61.97122016 -19.16015625 57.765625 C-17.36281382 51.93182668 -15.49898566 46.11935554 -13.64160156 40.30444336 C-12.06543836 35.36520738 -10.50679221 30.42162998 -8.98120117 25.46655273 C-2.94921496 5.89842991 -2.94921496 5.89842991 0 0 Z " fill="#020202" transform="translate(228,441)"/>
<path d="M0 0 C21.71491104 -0.53236556 40.64360332 3.06703247 57.6328125 17.55859375 C73.66920351 33.24043871 81.18744821 53.78155469 81.45043945 75.90478516 C81.44874756 77.17241699 81.44705566 78.44004883 81.4453125 79.74609375 C81.44510101 80.40389832 81.44488953 81.06170288 81.44467163 81.73944092 C81.37111961 104.72183346 75.33112187 125.17439256 59.8046875 142.56640625 C58.0703125 144.18359375 58.0703125 144.18359375 56.0703125 144.18359375 C56.0703125 144.84359375 56.0703125 145.50359375 56.0703125 146.18359375 C52.58080105 148.78789825 48.81007137 150.9587372 45.0703125 153.18359375 C44.41546875 153.58191406 43.760625 153.98023438 43.0859375 154.390625 C30.55810179 161.34745412 15.62777849 162.4192087 1.6328125 162.43359375 C0.95835083 162.43460083 0.28388916 162.43560791 -0.41101074 162.43664551 C-10.22486817 162.42670594 -19.48448629 162.12887155 -28.9296875 159.18359375 C-29.826875 158.90515625 -30.7240625 158.62671875 -31.6484375 158.33984375 C-49.18886806 152.05993651 -62.78240107 138.83914067 -70.84814453 122.30029297 C-81.34858039 99.25849148 -82.29468427 70.0439561 -73.6796875 46.24609375 C-65.71725854 27.63568287 -53.50726452 13.03119684 -34.5625 5.33203125 C-25.88134064 2.07192317 -17.54766208 0.24115769 -8.22558594 0.20263672 C-5.48174617 0.17987837 -2.74254966 0.08675676 0 0 Z " fill="#010101" transform="translate(792.9296875,499.81640625)"/>
<path d="M0 0 C12.54 0 25.08 0 38 0 C39.98 5.61 41.96 11.22 44 17 C45.05045192 19.83782219 46.10912725 22.67266977 47.1875 25.5 C48.97465452 30.18697273 50.6463997 34.8842216 52.21655273 39.64794922 C53.84808518 44.54610553 55.58862991 49.40705015 57.30664062 54.27539062 C58.89732934 58.79946522 60.44829508 63.33330139 61.953125 67.88671875 C63.9698211 73.96304208 66.12653854 79.98286352 68.3125 86 C69.10074407 88.18472139 69.88849759 90.36961983 70.67578125 92.5546875 C71.80869761 95.69755617 72.94214103 98.84021398 74.07958984 101.98144531 C75.05969284 104.69363894 76.03100076 107.40882297 77 110.125 C77.29044189 110.92292969 77.58088379 111.72085938 77.88012695 112.54296875 C79.47788305 117.04973284 80.49512993 121.2415996 81 126 C81.66 126 82.32 126 83 126 C83.11448486 125.16235107 83.22896973 124.32470215 83.34692383 123.46166992 C84.05577339 119.70436977 85.17826488 116.20662836 86.44921875 112.61328125 C86.69811859 111.89580215 86.94701843 111.17832306 87.20346069 110.43910217 C87.74383697 108.88143047 88.28612373 107.32442051 88.83010864 105.76800537 C90.31874098 101.50467258 91.78932823 97.23515186 93.2578125 92.96484375 C93.56560135 92.0698114 93.8733902 91.17477905 94.19050598 90.25262451 C97.59093605 80.32911093 100.833476 70.35534288 104.0625 60.375 C105.22345687 56.78889989 106.38481971 53.20293183 107.546875 49.6171875 C107.83164703 48.73844467 108.11641907 47.85970184 108.40982056 46.95433044 C111.49400296 37.45289676 114.6465605 27.97445497 117.8125 18.5 C118.07161163 17.7245282 118.33072327 16.9490564 118.59768677 16.15008545 C120.0630947 11.76604248 121.53120526 7.38290952 123 3 C123.33 2.01 123.66 1.02 124 0 C136.87 0 149.74 0 163 0 C163 8.99700798 163 8.99700798 161.75 12.34765625 C161.33850708 13.48364258 161.33850708 13.48364258 160.91870117 14.64257812 C160.61552979 15.44115234 160.3123584 16.23972656 160 17.0625 C159.34957884 18.8448035 158.69986631 20.62736573 158.05078125 22.41015625 C157.71127441 23.33070801 157.37176758 24.25125977 157.02197266 25.19970703 C155.35070528 29.77912336 153.77525975 34.39112527 152.1875 39 C139.34035694 75.99521876 139.34035694 75.99521876 133.24389648 91.23364258 C131.60435605 95.34572831 130.14088816 99.48762113 128.76147461 103.6940918 C127.47656979 107.58505878 126.10917505 111.44698126 124.75 115.3125 C124.13271897 117.07027966 123.51553431 118.82809316 122.8984375 120.5859375 C122.42809082 121.92543457 122.42809082 121.92543457 121.94824219 123.29199219 C121.01539225 125.95604252 120.08870933 128.62215508 119.1640625 131.2890625 C118.8640332 132.15233154 118.56400391 133.01560059 118.25488281 133.9050293 C117.69269522 135.52311252 117.1319988 137.14171512 116.57324219 138.76098633 C114.20034113 145.57764439 111.59606628 152.25022768 109 159 C90.85 159 72.7 159 54 159 C51.68985845 153.22464613 49.4311242 147.55118001 47.37890625 141.69921875 C47.15226791 141.05612259 46.92562958 140.41302643 46.69212341 139.7504425 C45.98024796 137.73015861 45.27104358 135.70895462 44.5625 133.6875 C41.53119228 125.04265946 38.42621948 116.44758704 35.10571289 107.90820312 C33.61109095 103.97710651 32.29901674 99.99880337 31 96 C26.62838716 83.1287318 21.98475242 70.34983139 17.375 57.5625 C17.09754944 56.79159027 16.82009888 56.02068054 16.53424072 55.22640991 C13.4560277 46.67752262 10.33305154 38.1546104 7.02832031 29.69018555 C5.81853121 26.52526007 4.72198955 23.33657298 3.69140625 20.109375 C3.21294825 18.64967264 2.69720956 17.20186116 2.15234375 15.765625 C1.87519531 15.01796875 1.59804688 14.2703125 1.3125 13.5 C1.06113281 12.8503125 0.80976562 12.200625 0.55078125 11.53125 C0 9 0 9 0 0 Z " fill="#020202" transform="translate(546,500)"/>
<path d="M0 0 C9.80049629 8.30022151 13.80049396 19.04435266 14.96484375 31.6640625 C15.84050251 47.16128985 16.52855107 64.74659046 6.66796875 77.76953125 C-0.51432034 85.75900421 -8.48871789 90.97654824 -19.4296875 91.85668945 C-21.96781561 91.93138436 -24.49609833 91.93714484 -27.03515625 91.9140625 C-28.31132813 91.92566406 -28.31132813 91.92566406 -29.61328125 91.9375 C-39.3478596 91.90763933 -47.19586752 89.62244806 -55.03515625 83.6640625 C-57.38984065 81.18359368 -59.2280271 78.56002972 -61.03515625 75.6640625 C-61.75703125 74.6121875 -62.47890625 73.5603125 -63.22265625 72.4765625 C-68.16166434 63.38934974 -68.56569636 52.38972961 -68.47265625 42.2890625 C-68.46363281 41.11021484 -68.45460938 39.93136719 -68.4453125 38.71679688 C-68.14305217 23.47783862 -64.99553659 12.48781282 -54.53515625 1.01953125 C-41.0499588 -11.66115158 -14.19192534 -10.41938823 0 0 Z " fill="#FCFCFC" transform="translate(821.03515625,537.3359375)"/>
<path d="M0 0 C13.2 0 26.4 0 40 0 C40 52.8 40 105.6 40 160 C26.8 160 13.6 160 0 160 C0 107.2 0 54.4 0 0 Z " fill="#040404" transform="translate(381,499)"/>
<path d="M0 0 C2 1 2 1 3.01806641 3.74609375 C3.37562012 4.96425781 3.73317383 6.18242187 4.1015625 7.4375 C4.29900055 8.1007428 4.4964386 8.7639856 4.69985962 9.44732666 C5.12571245 10.88044168 5.54809289 12.31459206 5.96740723 13.74963379 C7.0752119 17.54068247 8.20704064 21.3245647 9.3359375 25.109375 C9.56200684 25.86982117 9.78807617 26.63026733 10.02099609 27.41375732 C12.00152449 34.05734486 14.10520243 40.65766932 16.25 47.25 C18.89263019 55.4149328 21.38220235 63.60417674 23.69873047 71.86743164 C26.17816414 80.70792431 28.81272504 89.50122482 31.4609375 98.29248047 C31.7909375 99.3960791 32.1209375 100.49967773 32.4609375 101.63671875 C32.90638916 103.11724731 32.90638916 103.11724731 33.36083984 104.62768555 C34 107 34 107 34 109 C12.22 109 -9.56 109 -32 109 C-29.68730238 99.74920953 -27.41387133 90.68758675 -24.5625 81.625 C-22.42619317 74.73541047 -20.37277772 67.8407623 -18.5 60.875 C-16.5051093 53.49771524 -14.12718034 46.28406773 -11.66503906 39.05102539 C-8.70072675 30.270422 -6.18392219 21.3807563 -3.69726562 12.45556641 C-2.51415405 8.28899209 -1.25860815 4.14429132 0 0 Z " fill="#F9F9F9" transform="translate(260,458)"/>
<path d="M0 0 C28.38 0 56.76 0 86 0 C86 8.91 86 17.82 86 27 C57.62 27 29.24 27 0 27 C0 18.09 0 9.18 0 0 Z " fill="#010101" transform="translate(447,558)"/>
<path d="M0 0 C6.04915907 6.61187154 7.30551286 13.1501249 7.23266602 21.97485352 C6.8956369 29.54772789 4.46549505 34.93426211 -0.625 40.4375 C-7.85660297 44.47374352 -16.27231575 45.17579228 -24.25390625 43.21484375 C-31.58130329 40.80490091 -34.54842775 38.40264192 -38.0625 31.5 C-40.52343683 24.37410049 -40.52343683 15.50089951 -38.0625 8.375 C-35.08352057 2.52343326 -32.48724896 -0.59260041 -26.3125 -3.0625 C-17.48457189 -5.17352629 -7.80793388 -4.86154374 0 0 Z " fill="#FF4439" transform="translate(933.3125,615.0625)"/>
<path d="M0 0 C4.21549605 2.86298327 5.28949915 6.36466356 6.66796875 11.1328125 C7.36168657 18.8988483 7.4496386 26.1997511 3.66796875 33.1328125 C-0.37353036 37.65046524 -4.88507123 39.92598931 -10.890625 40.43359375 C-12.17066406 40.43746094 -13.45070313 40.44132812 -14.76953125 40.4453125 C-16.04699219 40.46207031 -17.32445312 40.47882813 -18.640625 40.49609375 C-24.15689973 39.95322227 -27.27732096 38.23546416 -31.08203125 34.2578125 C-36.48183795 26.75808097 -36.40276006 18.05629766 -35.33203125 9.1328125 C-33.85939937 4.31079929 -31.16913323 1.32745416 -26.95703125 -1.3671875 C-18.67935823 -4.88559121 -7.86779149 -4.22174178 0 0 Z " fill="#030303" transform="translate(415.33203125,438.8671875)"/>
</svg>
